# xmcd CD database file
#
# Track frame offsets:
#	150
#	18794
#	38826
#	61504
#	76944
#	95859
#	120979
#	139664
#	159634
#	173404
#	196447
#	220246
#
# Disc length: 3322 seconds
#
# Revision: 0
# Processed by: cddbd v1.4PL0 Copyright (c) Steve Scherf et al.
# Submitted via: CDex 1.50beta10
#
DISCID=910cf80c
DTITLE=John Campbell - Tyler, Texas Session
DYEAR=1900
DGENRE=Blues
TTITLE0=Walkin' Blues
TTITLE1=I Can't Be Satisfied
TTITLE2=Rollin' Stone
TTITLE3=Watch Dog Blues
TTITLE4=Driftin' And Driftin'
TTITLE5=Medley In C/Chump Man Blues
TTITLE6=My Babe
TTITLE7=Talk To Me Babe
TTITLE8=Blues In A
TTITLE9=The Sky Is Crying
TTITLE10=Terraplane Blues
TTITLE11=Mojo Hand
EXTD=
EXTT0=
EXTT1=
EXTT2=
EXTT3=
EXTT4=
EXTT5=
EXTT6=
EXTT7=
EXTT8=
EXTT9=
EXTT10=
EXTT11=
PLAYORDER=
